<?xml version="1.0" encoding="utf-8" standalone="no"?>
<!DOCTYPE svg PUBLIC "-//W3C//DTD SVG 1.1//EN"
  "http://www.w3.org/Graphics/SVG/1.1/DTD/svg11.dtd">
<svg xmlns:xlink="http://www.w3.org/1999/xlink" width="1105.92pt" height="546.48pt" viewBox="0 0 1105.92 546.48" xmlns="http://www.w3.org/2000/svg" version="1.1">
 <metadata>
  <rdf:RDF xmlns:dc="http://purl.org/dc/elements/1.1/" xmlns:cc="http://creativecommons.org/ns#" xmlns:rdf="http://www.w3.org/1999/02/22-rdf-syntax-ns#">
   <cc:Work>
    <dc:type rdf:resource="http://purl.org/dc/dcmitype/StillImage"/>
    <dc:date>2023-09-24T14:55:32.322253</dc:date>
    <dc:format>image/svg+xml</dc:format>
    <dc:creator>
     <cc:Agent>
      <dc:title>Matplotlib v3.5.1, https://matplotlib.org/</dc:title>
     </cc:Agent>
    </dc:creator>
   </cc:Work>
  </rdf:RDF>
 </metadata>
 <defs>
  <style type="text/css">*{stroke-linejoin: round; stroke-linecap: butt}</style>
 </defs>
 <g id="figure_1">
  <g id="patch_1">
   <path d="M 0 546.48 
L 1105.92 546.48 
L 1105.92 0 
L 0 0 
z
" style="fill: #ffffff"/>
  </g>
  <g id="axes_1">
   <g id="patch_2">
    <path d="M 60.392 494.728 
L 1095.12 494.728 
L 1095.12 39.6 
L 60.392 39.6 
z
" style="fill: #ffffff"/>
   </g>
   <g id="matplotlib.axis_1">
    <g id="xtick_1">
     <g id="line2d_1">
      <defs>
       <path id="m6b12c4f4c6" d="M 0 0 
L 0 3.5 
" style="stroke: #000000; stroke-width: 0.8"/>
      </defs>
      <g>
       <use xlink:href="#m6b12c4f4c6" x="97.826501" y="494.728" style="stroke: #000000; stroke-width: 0.8"/>
      </g>
     </g>
     <g id="text_1">
      <!-- 0 -->
      <g transform="translate(94.645251 509.326437)scale(0.1 -0.1)">
       <defs>
        <path id="DejaVuSans-30" d="M 2034 4250 
Q 1547 4250 1301 3770 
Q 1056 3291 1056 2328 
Q 1056 1369 1301 889 
Q 1547 409 2034 409 
Q 2525 409 2770 889 
Q 3016 1369 3016 2328 
Q 3016 3291 2770 3770 
Q 2525 4250 2034 4250 
z
M 2034 4750 
Q 2819 4750 3233 4129 
Q 3647 3509 3647 2328 
Q 3647 1150 3233 529 
Q 2819 -91 2034 -91 
Q 1250 -91 836 529 
Q 422 1150 422 2328 
Q 422 3509 836 4129 
Q 1250 4750 2034 4750 
z
" transform="scale(0.015625)"/>
       </defs>
       <use xlink:href="#DejaVuSans-30"/>
      </g>
     </g>
    </g>
    <g id="xtick_2">
     <g id="line2d_2">
      <g>
       <use xlink:href="#m6b12c4f4c6" x="289.798301" y="494.728" style="stroke: #000000; stroke-width: 0.8"/>
      </g>
     </g>
     <g id="text_2">
      <!-- 2000 -->
      <g transform="translate(277.073301 509.326437)scale(0.1 -0.1)">
       <defs>
        <path id="DejaVuSans-32" d="M 1228 531 
L 3431 531 
L 3431 0 
L 469 0 
L 469 531 
Q 828 903 1448 1529 
Q 2069 2156 2228 2338 
Q 2531 2678 2651 2914 
Q 2772 3150 2772 3378 
Q 2772 3750 2511 3984 
Q 2250 4219 1831 4219 
Q 1534 4219 1204 4116 
Q 875 4013 500 3803 
L 500 4441 
Q 881 4594 1212 4672 
Q 1544 4750 1819 4750 
Q 2544 4750 2975 4387 
Q 3406 4025 3406 3419 
Q 3406 3131 3298 2873 
Q 3191 2616 2906 2266 
Q 2828 2175 2409 1742 
Q 1991 1309 1228 531 
z
" transform="scale(0.015625)"/>
       </defs>
       <use xlink:href="#DejaVuSans-32"/>
       <use xlink:href="#DejaVuSans-30" x="63.623047"/>
       <use xlink:href="#DejaVuSans-30" x="127.246094"/>
       <use xlink:href="#DejaVuSans-30" x="190.869141"/>
      </g>
     </g>
    </g>
    <g id="xtick_3">
     <g id="line2d_3">
      <g>
       <use xlink:href="#m6b12c4f4c6" x="481.7701" y="494.728" style="stroke: #000000; stroke-width: 0.8"/>
      </g>
     </g>
     <g id="text_3">
      <!-- 4000 -->
      <g transform="translate(469.0451 509.326437)scale(0.1 -0.1)">
       <defs>
        <path id="DejaVuSans-34" d="M 2419 4116 
L 825 1625 
L 2419 1625 
L 2419 4116 
z
M 2253 4666 
L 3047 4666 
L 3047 1625 
L 3713 1625 
L 3713 1100 
L 3047 1100 
L 3047 0 
L 2419 0 
L 2419 1100 
L 313 1100 
L 313 1709 
L 2253 4666 
z
" transform="scale(0.015625)"/>
       </defs>
       <use xlink:href="#DejaVuSans-34"/>
       <use xlink:href="#DejaVuSans-30" x="63.623047"/>
       <use xlink:href="#DejaVuSans-30" x="127.246094"/>
       <use xlink:href="#DejaVuSans-30" x="190.869141"/>
      </g>
     </g>
    </g>
    <g id="xtick_4">
     <g id="line2d_4">
      <g>
       <use xlink:href="#m6b12c4f4c6" x="673.7419" y="494.728" style="stroke: #000000; stroke-width: 0.8"/>
      </g>
     </g>
     <g id="text_4">
      <!-- 6000 -->
      <g transform="translate(661.0169 509.326437)scale(0.1 -0.1)">
       <defs>
        <path id="DejaVuSans-36" d="M 2113 2584 
Q 1688 2584 1439 2293 
Q 1191 2003 1191 1497 
Q 1191 994 1439 701 
Q 1688 409 2113 409 
Q 2538 409 2786 701 
Q 3034 994 3034 1497 
Q 3034 2003 2786 2293 
Q 2538 2584 2113 2584 
z
M 3366 4563 
L 3366 3988 
Q 3128 4100 2886 4159 
Q 2644 4219 2406 4219 
Q 1781 4219 1451 3797 
Q 1122 3375 1075 2522 
Q 1259 2794 1537 2939 
Q 1816 3084 2150 3084 
Q 2853 3084 3261 2657 
Q 3669 2231 3669 1497 
Q 3669 778 3244 343 
Q 2819 -91 2113 -91 
Q 1303 -91 875 529 
Q 447 1150 447 2328 
Q 447 3434 972 4092 
Q 1497 4750 2381 4750 
Q 2619 4750 2861 4703 
Q 3103 4656 3366 4563 
z
" transform="scale(0.015625)"/>
       </defs>
       <use xlink:href="#DejaVuSans-36"/>
       <use xlink:href="#DejaVuSans-30" x="63.623047"/>
       <use xlink:href="#DejaVuSans-30" x="127.246094"/>
       <use xlink:href="#DejaVuSans-30" x="190.869141"/>
      </g>
     </g>
    </g>
    <g id="xtick_5">
     <g id="line2d_5">
      <g>
       <use xlink:href="#m6b12c4f4c6" x="865.713699" y="494.728" style="stroke: #000000; stroke-width: 0.8"/>
      </g>
     </g>
     <g id="text_5">
      <!-- 8000 -->
      <g transform="translate(852.988699 509.326437)scale(0.1 -0.1)">
       <defs>
        <path id="DejaVuSans-38" d="M 2034 2216 
Q 1584 2216 1326 1975 
Q 1069 1734 1069 1313 
Q 1069 891 1326 650 
Q 1584 409 2034 409 
Q 2484 409 2743 651 
Q 3003 894 3003 1313 
Q 3003 1734 2745 1975 
Q 2488 2216 2034 2216 
z
M 1403 2484 
Q 997 2584 770 2862 
Q 544 3141 544 3541 
Q 544 4100 942 4425 
Q 1341 4750 2034 4750 
Q 2731 4750 3128 4425 
Q 3525 4100 3525 3541 
Q 3525 3141 3298 2862 
Q 3072 2584 2669 2484 
Q 3125 2378 3379 2068 
Q 3634 1759 3634 1313 
Q 3634 634 3220 271 
Q 2806 -91 2034 -91 
Q 1263 -91 848 271 
Q 434 634 434 1313 
Q 434 1759 690 2068 
Q 947 2378 1403 2484 
z
M 1172 3481 
Q 1172 3119 1398 2916 
Q 1625 2713 2034 2713 
Q 2441 2713 2670 2916 
Q 2900 3119 2900 3481 
Q 2900 3844 2670 4047 
Q 2441 4250 2034 4250 
Q 1625 4250 1398 4047 
Q 1172 3844 1172 3481 
z
" transform="scale(0.015625)"/>
       </defs>
       <use xlink:href="#DejaVuSans-38"/>
       <use xlink:href="#DejaVuSans-30" x="63.623047"/>
       <use xlink:href="#DejaVuSans-30" x="127.246094"/>
       <use xlink:href="#DejaVuSans-30" x="190.869141"/>
      </g>
     </g>
    </g>
    <g id="xtick_6">
     <g id="line2d_6">
      <g>
       <use xlink:href="#m6b12c4f4c6" x="1057.685499" y="494.728" style="stroke: #000000; stroke-width: 0.8"/>
      </g>
     </g>
     <g id="text_6">
      <!-- 10000 -->
      <g transform="translate(1041.779249 509.326437)scale(0.1 -0.1)">
       <defs>
        <path id="DejaVuSans-31" d="M 794 531 
L 1825 531 
L 1825 4091 
L 703 3866 
L 703 4441 
L 1819 4666 
L 2450 4666 
L 2450 531 
L 3481 531 
L 3481 0 
L 794 0 
L 794 531 
z
" transform="scale(0.015625)"/>
       </defs>
       <use xlink:href="#DejaVuSans-31"/>
       <use xlink:href="#DejaVuSans-30" x="63.623047"/>
       <use xlink:href="#DejaVuSans-30" x="127.246094"/>
       <use xlink:href="#DejaVuSans-30" x="190.869141"/>
       <use xlink:href="#DejaVuSans-30" x="254.492188"/>
      </g>
     </g>
    </g>
    <g id="text_7">
     <!-- Number of planets (N) -->
     <g transform="translate(466.251313 530.603)scale(0.2 -0.2)">
      <defs>
       <path id="DejaVuSans-4e" d="M 628 4666 
L 1478 4666 
L 3547 763 
L 3547 4666 
L 4159 4666 
L 4159 0 
L 3309 0 
L 1241 3903 
L 1241 0 
L 628 0 
L 628 4666 
z
" transform="scale(0.015625)"/>
       <path id="DejaVuSans-75" d="M 544 1381 
L 544 3500 
L 1119 3500 
L 1119 1403 
Q 1119 906 1312 657 
Q 1506 409 1894 409 
Q 2359 409 2629 706 
Q 2900 1003 2900 1516 
L 2900 3500 
L 3475 3500 
L 3475 0 
L 2900 0 
L 2900 538 
Q 2691 219 2414 64 
Q 2138 -91 1772 -91 
Q 1169 -91 856 284 
Q 544 659 544 1381 
z
M 1991 3584 
L 1991 3584 
z
" transform="scale(0.015625)"/>
       <path id="DejaVuSans-6d" d="M 3328 2828 
Q 3544 3216 3844 3400 
Q 4144 3584 4550 3584 
Q 5097 3584 5394 3201 
Q 5691 2819 5691 2113 
L 5691 0 
L 5113 0 
L 5113 2094 
Q 5113 2597 4934 2840 
Q 4756 3084 4391 3084 
Q 3944 3084 3684 2787 
Q 3425 2491 3425 1978 
L 3425 0 
L 2847 0 
L 2847 2094 
Q 2847 2600 2669 2842 
Q 2491 3084 2119 3084 
Q 1678 3084 1418 2786 
Q 1159 2488 1159 1978 
L 1159 0 
L 581 0 
L 581 3500 
L 1159 3500 
L 1159 2956 
Q 1356 3278 1631 3431 
Q 1906 3584 2284 3584 
Q 2666 3584 2933 3390 
Q 3200 3197 3328 2828 
z
" transform="scale(0.015625)"/>
       <path id="DejaVuSans-62" d="M 3116 1747 
Q 3116 2381 2855 2742 
Q 2594 3103 2138 3103 
Q 1681 3103 1420 2742 
Q 1159 2381 1159 1747 
Q 1159 1113 1420 752 
Q 1681 391 2138 391 
Q 2594 391 2855 752 
Q 3116 1113 3116 1747 
z
M 1159 2969 
Q 1341 3281 1617 3432 
Q 1894 3584 2278 3584 
Q 2916 3584 3314 3078 
Q 3713 2572 3713 1747 
Q 3713 922 3314 415 
Q 2916 -91 2278 -91 
Q 1894 -91 1617 61 
Q 1341 213 1159 525 
L 1159 0 
L 581 0 
L 581 4863 
L 1159 4863 
L 1159 2969 
z
" transform="scale(0.015625)"/>
       <path id="DejaVuSans-65" d="M 3597 1894 
L 3597 1613 
L 953 1613 
Q 991 1019 1311 708 
Q 1631 397 2203 397 
Q 2534 397 2845 478 
Q 3156 559 3463 722 
L 3463 178 
Q 3153 47 2828 -22 
Q 2503 -91 2169 -91 
Q 1331 -91 842 396 
Q 353 884 353 1716 
Q 353 2575 817 3079 
Q 1281 3584 2069 3584 
Q 2775 3584 3186 3129 
Q 3597 2675 3597 1894 
z
M 3022 2063 
Q 3016 2534 2758 2815 
Q 2500 3097 2075 3097 
Q 1594 3097 1305 2825 
Q 1016 2553 972 2059 
L 3022 2063 
z
" transform="scale(0.015625)"/>
       <path id="DejaVuSans-72" d="M 2631 2963 
Q 2534 3019 2420 3045 
Q 2306 3072 2169 3072 
Q 1681 3072 1420 2755 
Q 1159 2438 1159 1844 
L 1159 0 
L 581 0 
L 581 3500 
L 1159 3500 
L 1159 2956 
Q 1341 3275 1631 3429 
Q 1922 3584 2338 3584 
Q 2397 3584 2469 3576 
Q 2541 3569 2628 3553 
L 2631 2963 
z
" transform="scale(0.015625)"/>
       <path id="DejaVuSans-20" transform="scale(0.015625)"/>
       <path id="DejaVuSans-6f" d="M 1959 3097 
Q 1497 3097 1228 2736 
Q 959 2375 959 1747 
Q 959 1119 1226 758 
Q 1494 397 1959 397 
Q 2419 397 2687 759 
Q 2956 1122 2956 1747 
Q 2956 2369 2687 2733 
Q 2419 3097 1959 3097 
z
M 1959 3584 
Q 2709 3584 3137 3096 
Q 3566 2609 3566 1747 
Q 3566 888 3137 398 
Q 2709 -91 1959 -91 
Q 1206 -91 779 398 
Q 353 888 353 1747 
Q 353 2609 779 3096 
Q 1206 3584 1959 3584 
z
" transform="scale(0.015625)"/>
       <path id="DejaVuSans-66" d="M 2375 4863 
L 2375 4384 
L 1825 4384 
Q 1516 4384 1395 4259 
Q 1275 4134 1275 3809 
L 1275 3500 
L 2222 3500 
L 2222 3053 
L 1275 3053 
L 1275 0 
L 697 0 
L 697 3053 
L 147 3053 
L 147 3500 
L 697 3500 
L 697 3744 
Q 697 4328 969 4595 
Q 1241 4863 1831 4863 
L 2375 4863 
z
" transform="scale(0.015625)"/>
       <path id="DejaVuSans-70" d="M 1159 525 
L 1159 -1331 
L 581 -1331 
L 581 3500 
L 1159 3500 
L 1159 2969 
Q 1341 3281 1617 3432 
Q 1894 3584 2278 3584 
Q 2916 3584 3314 3078 
Q 3713 2572 3713 1747 
Q 3713 922 3314 415 
Q 2916 -91 2278 -91 
Q 1894 -91 1617 61 
Q 1341 213 1159 525 
z
M 3116 1747 
Q 3116 2381 2855 2742 
Q 2594 3103 2138 3103 
Q 1681 3103 1420 2742 
Q 1159 2381 1159 1747 
Q 1159 1113 1420 752 
Q 1681 391 2138 391 
Q 2594 391 2855 752 
Q 3116 1113 3116 1747 
z
" transform="scale(0.015625)"/>
       <path id="DejaVuSans-6c" d="M 603 4863 
L 1178 4863 
L 1178 0 
L 603 0 
L 603 4863 
z
" transform="scale(0.015625)"/>
       <path id="DejaVuSans-61" d="M 2194 1759 
Q 1497 1759 1228 1600 
Q 959 1441 959 1056 
Q 959 750 1161 570 
Q 1363 391 1709 391 
Q 2188 391 2477 730 
Q 2766 1069 2766 1631 
L 2766 1759 
L 2194 1759 
z
M 3341 1997 
L 3341 0 
L 2766 0 
L 2766 531 
Q 2569 213 2275 61 
Q 1981 -91 1556 -91 
Q 1019 -91 701 211 
Q 384 513 384 1019 
Q 384 1609 779 1909 
Q 1175 2209 1959 2209 
L 2766 2209 
L 2766 2266 
Q 2766 2663 2505 2880 
Q 2244 3097 1772 3097 
Q 1472 3097 1187 3025 
Q 903 2953 641 2809 
L 641 3341 
Q 956 3463 1253 3523 
Q 1550 3584 1831 3584 
Q 2591 3584 2966 3190 
Q 3341 2797 3341 1997 
z
" transform="scale(0.015625)"/>
       <path id="DejaVuSans-6e" d="M 3513 2113 
L 3513 0 
L 2938 0 
L 2938 2094 
Q 2938 2591 2744 2837 
Q 2550 3084 2163 3084 
Q 1697 3084 1428 2787 
Q 1159 2491 1159 1978 
L 1159 0 
L 581 0 
L 581 3500 
L 1159 3500 
L 1159 2956 
Q 1366 3272 1645 3428 
Q 1925 3584 2291 3584 
Q 2894 3584 3203 3211 
Q 3513 2838 3513 2113 
z
" transform="scale(0.015625)"/>
       <path id="DejaVuSans-74" d="M 1172 4494 
L 1172 3500 
L 2356 3500 
L 2356 3053 
L 1172 3053 
L 1172 1153 
Q 1172 725 1289 603 
Q 1406 481 1766 481 
L 2356 481 
L 2356 0 
L 1766 0 
Q 1100 0 847 248 
Q 594 497 594 1153 
L 594 3053 
L 172 3053 
L 172 3500 
L 594 3500 
L 594 4494 
L 1172 4494 
z
" transform="scale(0.015625)"/>
       <path id="DejaVuSans-73" d="M 2834 3397 
L 2834 2853 
Q 2591 2978 2328 3040 
Q 2066 3103 1784 3103 
Q 1356 3103 1142 2972 
Q 928 2841 928 2578 
Q 928 2378 1081 2264 
Q 1234 2150 1697 2047 
L 1894 2003 
Q 2506 1872 2764 1633 
Q 3022 1394 3022 966 
Q 3022 478 2636 193 
Q 2250 -91 1575 -91 
Q 1294 -91 989 -36 
Q 684 19 347 128 
L 347 722 
Q 666 556 975 473 
Q 1284 391 1588 391 
Q 1994 391 2212 530 
Q 2431 669 2431 922 
Q 2431 1156 2273 1281 
Q 2116 1406 1581 1522 
L 1381 1569 
Q 847 1681 609 1914 
Q 372 2147 372 2553 
Q 372 3047 722 3315 
Q 1072 3584 1716 3584 
Q 2034 3584 2315 3537 
Q 2597 3491 2834 3397 
z
" transform="scale(0.015625)"/>
       <path id="DejaVuSans-28" d="M 1984 4856 
Q 1566 4138 1362 3434 
Q 1159 2731 1159 2009 
Q 1159 1288 1364 580 
Q 1569 -128 1984 -844 
L 1484 -844 
Q 1016 -109 783 600 
Q 550 1309 550 2009 
Q 550 2706 781 3412 
Q 1013 4119 1484 4856 
L 1984 4856 
z
" transform="scale(0.015625)"/>
       <path id="DejaVuSans-29" d="M 513 4856 
L 1013 4856 
Q 1481 4119 1714 3412 
Q 1947 2706 1947 2009 
Q 1947 1309 1714 600 
Q 1481 -109 1013 -844 
L 513 -844 
Q 928 -128 1133 580 
Q 1338 1288 1338 2009 
Q 1338 2731 1133 3434 
Q 928 4138 513 4856 
z
" transform="scale(0.015625)"/>
      </defs>
      <use xlink:href="#DejaVuSans-4e"/>
      <use xlink:href="#DejaVuSans-75" x="74.804688"/>
      <use xlink:href="#DejaVuSans-6d" x="138.183594"/>
      <use xlink:href="#DejaVuSans-62" x="235.595703"/>
      <use xlink:href="#DejaVuSans-65" x="299.072266"/>
      <use xlink:href="#DejaVuSans-72" x="360.595703"/>
      <use xlink:href="#DejaVuSans-20" x="401.708984"/>
      <use xlink:href="#DejaVuSans-6f" x="433.496094"/>
      <use xlink:href="#DejaVuSans-66" x="494.677734"/>
      <use xlink:href="#DejaVuSans-20" x="529.882812"/>
      <use xlink:href="#DejaVuSans-70" x="561.669922"/>
      <use xlink:href="#DejaVuSans-6c" x="625.146484"/>
      <use xlink:href="#DejaVuSans-61" x="652.929688"/>
      <use xlink:href="#DejaVuSans-6e" x="714.208984"/>
      <use xlink:href="#DejaVuSans-65" x="777.587891"/>
      <use xlink:href="#DejaVuSans-74" x="839.111328"/>
      <use xlink:href="#DejaVuSans-73" x="878.320312"/>
      <use xlink:href="#DejaVuSans-20" x="930.419922"/>
      <use xlink:href="#DejaVuSans-28" x="962.207031"/>
      <use xlink:href="#DejaVuSans-4e" x="1001.220703"/>
      <use xlink:href="#DejaVuSans-29" x="1076.025391"/>
     </g>
    </g>
   </g>
   <g id="matplotlib.axis_2">
    <g id="ytick_1">
     <g id="line2d_7">
      <defs>
       <path id="mbfe5df3b05" d="M 0 0 
L -3.5 0 
" style="stroke: #000000; stroke-width: 0.8"/>
      </defs>
      <g>
       <use xlink:href="#mbfe5df3b05" x="60.392" y="487.511383" style="stroke: #000000; stroke-width: 0.8"/>
      </g>
     </g>
     <g id="text_8">
      <!-- 0 -->
      <g transform="translate(47.0295 491.310601)scale(0.1 -0.1)">
       <use xlink:href="#DejaVuSans-30"/>
      </g>
     </g>
    </g>
    <g id="ytick_2">
     <g id="line2d_8">
      <g>
       <use xlink:href="#mbfe5df3b05" x="60.392" y="391.289818" style="stroke: #000000; stroke-width: 0.8"/>
      </g>
     </g>
     <g id="text_9">
      <!-- 50 -->
      <g transform="translate(40.667 395.089037)scale(0.1 -0.1)">
       <defs>
        <path id="DejaVuSans-35" d="M 691 4666 
L 3169 4666 
L 3169 4134 
L 1269 4134 
L 1269 2991 
Q 1406 3038 1543 3061 
Q 1681 3084 1819 3084 
Q 2600 3084 3056 2656 
Q 3513 2228 3513 1497 
Q 3513 744 3044 326 
Q 2575 -91 1722 -91 
Q 1428 -91 1123 -41 
Q 819 9 494 109 
L 494 744 
Q 775 591 1075 516 
Q 1375 441 1709 441 
Q 2250 441 2565 725 
Q 2881 1009 2881 1497 
Q 2881 1984 2565 2268 
Q 2250 2553 1709 2553 
Q 1456 2553 1204 2497 
Q 953 2441 691 2322 
L 691 4666 
z
" transform="scale(0.015625)"/>
       </defs>
       <use xlink:href="#DejaVuSans-35"/>
       <use xlink:href="#DejaVuSans-30" x="63.623047"/>
      </g>
     </g>
    </g>
    <g id="ytick_3">
     <g id="line2d_9">
      <g>
       <use xlink:href="#mbfe5df3b05" x="60.392" y="295.068254" style="stroke: #000000; stroke-width: 0.8"/>
      </g>
     </g>
     <g id="text_10">
      <!-- 100 -->
      <g transform="translate(34.3045 298.867472)scale(0.1 -0.1)">
       <use xlink:href="#DejaVuSans-31"/>
       <use xlink:href="#DejaVuSans-30" x="63.623047"/>
       <use xlink:href="#DejaVuSans-30" x="127.246094"/>
      </g>
     </g>
    </g>
    <g id="ytick_4">
     <g id="line2d_10">
      <g>
       <use xlink:href="#mbfe5df3b05" x="60.392" y="198.846689" style="stroke: #000000; stroke-width: 0.8"/>
      </g>
     </g>
     <g id="text_11">
      <!-- 150 -->
      <g transform="translate(34.3045 202.645908)scale(0.1 -0.1)">
       <use xlink:href="#DejaVuSans-31"/>
       <use xlink:href="#DejaVuSans-35" x="63.623047"/>
       <use xlink:href="#DejaVuSans-30" x="127.246094"/>
      </g>
     </g>
    </g>
    <g id="ytick_5">
     <g id="line2d_11">
      <g>
       <use xlink:href="#mbfe5df3b05" x="60.392" y="102.625125" style="stroke: #000000; stroke-width: 0.8"/>
      </g>
     </g>
     <g id="text_12">
      <!-- 200 -->
      <g transform="translate(34.3045 106.424343)scale(0.1 -0.1)">
       <use xlink:href="#DejaVuSans-32"/>
       <use xlink:href="#DejaVuSans-30" x="63.623047"/>
       <use xlink:href="#DejaVuSans-30" x="127.246094"/>
      </g>
     </g>
    </g>
    <g id="text_13">
     <!-- Time taken in ms (T) -->
     <g transform="translate(26.145125 370.287437)rotate(-90)scale(0.2 -0.2)">
      <defs>
       <path id="DejaVuSans-54" d="M -19 4666 
L 3928 4666 
L 3928 4134 
L 2272 4134 
L 2272 0 
L 1638 0 
L 1638 4134 
L -19 4134 
L -19 4666 
z
" transform="scale(0.015625)"/>
       <path id="DejaVuSans-69" d="M 603 3500 
L 1178 3500 
L 1178 0 
L 603 0 
L 603 3500 
z
M 603 4863 
L 1178 4863 
L 1178 4134 
L 603 4134 
L 603 4863 
z
" transform="scale(0.015625)"/>
       <path id="DejaVuSans-6b" d="M 581 4863 
L 1159 4863 
L 1159 1991 
L 2875 3500 
L 3609 3500 
L 1753 1863 
L 3688 0 
L 2938 0 
L 1159 1709 
L 1159 0 
L 581 0 
L 581 4863 
z
" transform="scale(0.015625)"/>
      </defs>
      <use xlink:href="#DejaVuSans-54"/>
      <use xlink:href="#DejaVuSans-69" x="57.958984"/>
      <use xlink:href="#DejaVuSans-6d" x="85.742188"/>
      <use xlink:href="#DejaVuSans-65" x="183.154297"/>
      <use xlink:href="#DejaVuSans-20" x="244.677734"/>
      <use xlink:href="#DejaVuSans-74" x="276.464844"/>
      <use xlink:href="#DejaVuSans-61" x="315.673828"/>
      <use xlink:href="#DejaVuSans-6b" x="376.953125"/>
      <use xlink:href="#DejaVuSans-65" x="431.238281"/>
      <use xlink:href="#DejaVuSans-6e" x="492.761719"/>
      <use xlink:href="#DejaVuSans-20" x="556.140625"/>
      <use xlink:href="#DejaVuSans-69" x="587.927734"/>
      <use xlink:href="#DejaVuSans-6e" x="615.710938"/>
      <use xlink:href="#DejaVuSans-20" x="679.089844"/>
      <use xlink:href="#DejaVuSans-6d" x="710.876953"/>
      <use xlink:href="#DejaVuSans-73" x="808.289062"/>
      <use xlink:href="#DejaVuSans-20" x="860.388672"/>
      <use xlink:href="#DejaVuSans-28" x="892.175781"/>
      <use xlink:href="#DejaVuSans-54" x="931.189453"/>
      <use xlink:href="#DejaVuSans-29" x="992.273438"/>
     </g>
    </g>
   </g>
   <g id="line2d_12">
    <defs>
     <path id="m4b44b76cb0" d="M 0 3 
C 0.795609 3 1.55874 2.683901 2.12132 2.12132 
C 2.683901 1.55874 3 0.795609 3 0 
C 3 -0.795609 2.683901 -1.55874 2.12132 -2.12132 
C 1.55874 -2.683901 0.795609 -3 0 -3 
C -0.795609 -3 -1.55874 -2.683901 -2.12132 -2.12132 
C -2.683901 -1.55874 -3 -0.795609 -3 0 
C -3 0.795609 -2.683901 1.55874 -2.12132 2.12132 
C -1.55874 2.683901 -0.795609 3 0 3 
z
" style="stroke: #0d0d0d"/>
    </defs>
    <g clip-path="url(#p6b11bf18a3)">
     <use xlink:href="#m4b44b76cb0" x="107.425091" y="472.115932" style="fill: #0d0d0d; stroke: #0d0d0d"/>
    </g>
   </g>
   <g id="line2d_13">
    <g clip-path="url(#p6b11bf18a3)">
     <use xlink:href="#m4b44b76cb0" x="117.023681" y="474.040364" style="fill: #0d0d0d; stroke: #0d0d0d"/>
    </g>
   </g>
   <g id="line2d_14">
    <g clip-path="url(#p6b11bf18a3)">
     <use xlink:href="#m4b44b76cb0" x="126.622271" y="472.115932" style="fill: #0d0d0d; stroke: #0d0d0d"/>
    </g>
   </g>
   <g id="line2d_15">
    <g clip-path="url(#p6b11bf18a3)">
     <use xlink:href="#m4b44b76cb0" x="136.220861" y="472.115932" style="fill: #0d0d0d; stroke: #0d0d0d"/>
    </g>
   </g>
   <g id="line2d_16">
    <g clip-path="url(#p6b11bf18a3)">
     <use xlink:href="#m4b44b76cb0" x="145.819451" y="472.115932" style="fill: #0d0d0d; stroke: #0d0d0d"/>
    </g>
   </g>
   <g id="line2d_17">
    <g clip-path="url(#p6b11bf18a3)">
     <use xlink:href="#m4b44b76cb0" x="155.418041" y="470.191501" style="fill: #0d0d0d; stroke: #0d0d0d"/>
    </g>
   </g>
   <g id="line2d_18">
    <g clip-path="url(#p6b11bf18a3)">
     <use xlink:href="#m4b44b76cb0" x="165.016631" y="470.191501" style="fill: #0d0d0d; stroke: #0d0d0d"/>
    </g>
   </g>
   <g id="line2d_19">
    <g clip-path="url(#p6b11bf18a3)">
     <use xlink:href="#m4b44b76cb0" x="174.615221" y="472.115932" style="fill: #0d0d0d; stroke: #0d0d0d"/>
    </g>
   </g>
   <g id="line2d_20">
    <g clip-path="url(#p6b11bf18a3)">
     <use xlink:href="#m4b44b76cb0" x="184.213811" y="470.191501" style="fill: #0d0d0d; stroke: #0d0d0d"/>
    </g>
   </g>
   <g id="line2d_21">
    <g clip-path="url(#p6b11bf18a3)">
     <use xlink:href="#m4b44b76cb0" x="193.812401" y="470.191501" style="fill: #0d0d0d; stroke: #0d0d0d"/>
    </g>
   </g>
   <g id="line2d_22">
    <g clip-path="url(#p6b11bf18a3)">
     <use xlink:href="#m4b44b76cb0" x="203.410991" y="456.720482" style="fill: #0d0d0d; stroke: #0d0d0d"/>
    </g>
   </g>
   <g id="line2d_23">
    <g clip-path="url(#p6b11bf18a3)">
     <use xlink:href="#m4b44b76cb0" x="213.009581" y="462.493776" style="fill: #0d0d0d; stroke: #0d0d0d"/>
    </g>
   </g>
   <g id="line2d_24">
    <g clip-path="url(#p6b11bf18a3)">
     <use xlink:href="#m4b44b76cb0" x="222.608171" y="449.022757" style="fill: #0d0d0d; stroke: #0d0d0d"/>
    </g>
   </g>
   <g id="line2d_25">
    <g clip-path="url(#p6b11bf18a3)">
     <use xlink:href="#m4b44b76cb0" x="232.206761" y="443.249463" style="fill: #0d0d0d; stroke: #0d0d0d"/>
    </g>
   </g>
   <g id="line2d_26">
    <g clip-path="url(#p6b11bf18a3)">
     <use xlink:href="#m4b44b76cb0" x="241.805351" y="462.493776" style="fill: #0d0d0d; stroke: #0d0d0d"/>
    </g>
   </g>
   <g id="line2d_27">
    <g clip-path="url(#p6b11bf18a3)">
     <use xlink:href="#m4b44b76cb0" x="251.403941" y="460.569345" style="fill: #0d0d0d; stroke: #0d0d0d"/>
    </g>
   </g>
   <g id="line2d_28">
    <g clip-path="url(#p6b11bf18a3)">
     <use xlink:href="#m4b44b76cb0" x="261.002531" y="460.569345" style="fill: #0d0d0d; stroke: #0d0d0d"/>
    </g>
   </g>
   <g id="line2d_29">
    <g clip-path="url(#p6b11bf18a3)">
     <use xlink:href="#m4b44b76cb0" x="270.601121" y="458.644913" style="fill: #0d0d0d; stroke: #0d0d0d"/>
    </g>
   </g>
   <g id="line2d_30">
    <g clip-path="url(#p6b11bf18a3)">
     <use xlink:href="#m4b44b76cb0" x="280.199711" y="454.796051" style="fill: #0d0d0d; stroke: #0d0d0d"/>
    </g>
   </g>
   <g id="line2d_31">
    <g clip-path="url(#p6b11bf18a3)">
     <use xlink:href="#m4b44b76cb0" x="289.798301" y="452.871619" style="fill: #0d0d0d; stroke: #0d0d0d"/>
    </g>
   </g>
   <g id="line2d_32">
    <g clip-path="url(#p6b11bf18a3)">
     <use xlink:href="#m4b44b76cb0" x="299.396891" y="449.022757" style="fill: #0d0d0d; stroke: #0d0d0d"/>
    </g>
   </g>
   <g id="line2d_33">
    <g clip-path="url(#p6b11bf18a3)">
     <use xlink:href="#m4b44b76cb0" x="308.995481" y="449.022757" style="fill: #0d0d0d; stroke: #0d0d0d"/>
    </g>
   </g>
   <g id="line2d_34">
    <g clip-path="url(#p6b11bf18a3)">
     <use xlink:href="#m4b44b76cb0" x="318.594071" y="447.098326" style="fill: #0d0d0d; stroke: #0d0d0d"/>
    </g>
   </g>
   <g id="line2d_35">
    <g clip-path="url(#p6b11bf18a3)">
     <use xlink:href="#m4b44b76cb0" x="328.19266" y="447.098326" style="fill: #0d0d0d; stroke: #0d0d0d"/>
    </g>
   </g>
   <g id="line2d_36">
    <g clip-path="url(#p6b11bf18a3)">
     <use xlink:href="#m4b44b76cb0" x="337.79125" y="439.4006" style="fill: #0d0d0d; stroke: #0d0d0d"/>
    </g>
   </g>
   <g id="line2d_37">
    <g clip-path="url(#p6b11bf18a3)">
     <use xlink:href="#m4b44b76cb0" x="347.38984" y="435.551738" style="fill: #0d0d0d; stroke: #0d0d0d"/>
    </g>
   </g>
   <g id="line2d_38">
    <g clip-path="url(#p6b11bf18a3)">
     <use xlink:href="#m4b44b76cb0" x="356.98843" y="433.627307" style="fill: #0d0d0d; stroke: #0d0d0d"/>
    </g>
   </g>
   <g id="line2d_39">
    <g clip-path="url(#p6b11bf18a3)">
     <use xlink:href="#m4b44b76cb0" x="366.58702" y="433.627307" style="fill: #0d0d0d; stroke: #0d0d0d"/>
    </g>
   </g>
   <g id="line2d_40">
    <g clip-path="url(#p6b11bf18a3)">
     <use xlink:href="#m4b44b76cb0" x="376.18561" y="425.929581" style="fill: #0d0d0d; stroke: #0d0d0d"/>
    </g>
   </g>
   <g id="line2d_41">
    <g clip-path="url(#p6b11bf18a3)">
     <use xlink:href="#m4b44b76cb0" x="385.7842" y="420.156288" style="fill: #0d0d0d; stroke: #0d0d0d"/>
    </g>
   </g>
   <g id="line2d_42">
    <g clip-path="url(#p6b11bf18a3)">
     <use xlink:href="#m4b44b76cb0" x="395.38279" y="422.080719" style="fill: #0d0d0d; stroke: #0d0d0d"/>
    </g>
   </g>
   <g id="line2d_43">
    <g clip-path="url(#p6b11bf18a3)">
     <use xlink:href="#m4b44b76cb0" x="404.98138" y="424.00515" style="fill: #0d0d0d; stroke: #0d0d0d"/>
    </g>
   </g>
   <g id="line2d_44">
    <g clip-path="url(#p6b11bf18a3)">
     <use xlink:href="#m4b44b76cb0" x="414.57997" y="412.458562" style="fill: #0d0d0d; stroke: #0d0d0d"/>
    </g>
   </g>
   <g id="line2d_45">
    <g clip-path="url(#p6b11bf18a3)">
     <use xlink:href="#m4b44b76cb0" x="424.17856" y="414.382994" style="fill: #0d0d0d; stroke: #0d0d0d"/>
    </g>
   </g>
   <g id="line2d_46">
    <g clip-path="url(#p6b11bf18a3)">
     <use xlink:href="#m4b44b76cb0" x="433.77715" y="408.6097" style="fill: #0d0d0d; stroke: #0d0d0d"/>
    </g>
   </g>
   <g id="line2d_47">
    <g clip-path="url(#p6b11bf18a3)">
     <use xlink:href="#m4b44b76cb0" x="443.37574" y="414.382994" style="fill: #0d0d0d; stroke: #0d0d0d"/>
    </g>
   </g>
   <g id="line2d_48">
    <g clip-path="url(#p6b11bf18a3)">
     <use xlink:href="#m4b44b76cb0" x="452.97433" y="406.685268" style="fill: #0d0d0d; stroke: #0d0d0d"/>
    </g>
   </g>
   <g id="line2d_49">
    <g clip-path="url(#p6b11bf18a3)">
     <use xlink:href="#m4b44b76cb0" x="462.57292" y="406.685268" style="fill: #0d0d0d; stroke: #0d0d0d"/>
    </g>
   </g>
   <g id="line2d_50">
    <g clip-path="url(#p6b11bf18a3)">
     <use xlink:href="#m4b44b76cb0" x="472.17151" y="402.836406" style="fill: #0d0d0d; stroke: #0d0d0d"/>
    </g>
   </g>
   <g id="line2d_51">
    <g clip-path="url(#p6b11bf18a3)">
     <use xlink:href="#m4b44b76cb0" x="481.7701" y="397.063112" style="fill: #0d0d0d; stroke: #0d0d0d"/>
    </g>
   </g>
   <g id="line2d_52">
    <g clip-path="url(#p6b11bf18a3)">
     <use xlink:href="#m4b44b76cb0" x="491.36869" y="391.289818" style="fill: #0d0d0d; stroke: #0d0d0d"/>
    </g>
   </g>
   <g id="line2d_53">
    <g clip-path="url(#p6b11bf18a3)">
     <use xlink:href="#m4b44b76cb0" x="500.96728" y="385.516524" style="fill: #0d0d0d; stroke: #0d0d0d"/>
    </g>
   </g>
   <g id="line2d_54">
    <g clip-path="url(#p6b11bf18a3)">
     <use xlink:href="#m4b44b76cb0" x="510.56587" y="385.516524" style="fill: #0d0d0d; stroke: #0d0d0d"/>
    </g>
   </g>
   <g id="line2d_55">
    <g clip-path="url(#p6b11bf18a3)">
     <use xlink:href="#m4b44b76cb0" x="520.16446" y="377.818799" style="fill: #0d0d0d; stroke: #0d0d0d"/>
    </g>
   </g>
   <g id="line2d_56">
    <g clip-path="url(#p6b11bf18a3)">
     <use xlink:href="#m4b44b76cb0" x="529.76305" y="370.121074" style="fill: #0d0d0d; stroke: #0d0d0d"/>
    </g>
   </g>
   <g id="line2d_57">
    <g clip-path="url(#p6b11bf18a3)">
     <use xlink:href="#m4b44b76cb0" x="539.36164" y="368.196643" style="fill: #0d0d0d; stroke: #0d0d0d"/>
    </g>
   </g>
   <g id="line2d_58">
    <g clip-path="url(#p6b11bf18a3)">
     <use xlink:href="#m4b44b76cb0" x="548.96023" y="360.498918" style="fill: #0d0d0d; stroke: #0d0d0d"/>
    </g>
   </g>
   <g id="line2d_59">
    <g clip-path="url(#p6b11bf18a3)">
     <use xlink:href="#m4b44b76cb0" x="558.55882" y="358.574486" style="fill: #0d0d0d; stroke: #0d0d0d"/>
    </g>
   </g>
   <g id="line2d_60">
    <g clip-path="url(#p6b11bf18a3)">
     <use xlink:href="#m4b44b76cb0" x="568.15741" y="350.876761" style="fill: #0d0d0d; stroke: #0d0d0d"/>
    </g>
   </g>
   <g id="line2d_61">
    <g clip-path="url(#p6b11bf18a3)">
     <use xlink:href="#m4b44b76cb0" x="577.756" y="339.330173" style="fill: #0d0d0d; stroke: #0d0d0d"/>
    </g>
   </g>
   <g id="line2d_62">
    <g clip-path="url(#p6b11bf18a3)">
     <use xlink:href="#m4b44b76cb0" x="587.35459" y="341.254605" style="fill: #0d0d0d; stroke: #0d0d0d"/>
    </g>
   </g>
   <g id="line2d_63">
    <g clip-path="url(#p6b11bf18a3)">
     <use xlink:href="#m4b44b76cb0" x="596.95318" y="333.556879" style="fill: #0d0d0d; stroke: #0d0d0d"/>
    </g>
   </g>
   <g id="line2d_64">
    <g clip-path="url(#p6b11bf18a3)">
     <use xlink:href="#m4b44b76cb0" x="606.55177" y="325.859154" style="fill: #0d0d0d; stroke: #0d0d0d"/>
    </g>
   </g>
   <g id="line2d_65">
    <g clip-path="url(#p6b11bf18a3)">
     <use xlink:href="#m4b44b76cb0" x="616.15036" y="329.708017" style="fill: #0d0d0d; stroke: #0d0d0d"/>
    </g>
   </g>
   <g id="line2d_66">
    <g clip-path="url(#p6b11bf18a3)">
     <use xlink:href="#m4b44b76cb0" x="625.74895" y="323.934723" style="fill: #0d0d0d; stroke: #0d0d0d"/>
    </g>
   </g>
   <g id="line2d_67">
    <g clip-path="url(#p6b11bf18a3)">
     <use xlink:href="#m4b44b76cb0" x="635.34754" y="320.08586" style="fill: #0d0d0d; stroke: #0d0d0d"/>
    </g>
   </g>
   <g id="line2d_68">
    <g clip-path="url(#p6b11bf18a3)">
     <use xlink:href="#m4b44b76cb0" x="644.94613" y="312.388135" style="fill: #0d0d0d; stroke: #0d0d0d"/>
    </g>
   </g>
   <g id="line2d_69">
    <g clip-path="url(#p6b11bf18a3)">
     <use xlink:href="#m4b44b76cb0" x="654.54472" y="302.765979" style="fill: #0d0d0d; stroke: #0d0d0d"/>
    </g>
   </g>
   <g id="line2d_70">
    <g clip-path="url(#p6b11bf18a3)">
     <use xlink:href="#m4b44b76cb0" x="664.14331" y="298.917116" style="fill: #0d0d0d; stroke: #0d0d0d"/>
    </g>
   </g>
   <g id="line2d_71">
    <g clip-path="url(#p6b11bf18a3)">
     <use xlink:href="#m4b44b76cb0" x="673.7419" y="287.370529" style="fill: #0d0d0d; stroke: #0d0d0d"/>
    </g>
   </g>
   <g id="line2d_72">
    <g clip-path="url(#p6b11bf18a3)">
     <use xlink:href="#m4b44b76cb0" x="683.34049" y="285.446097" style="fill: #0d0d0d; stroke: #0d0d0d"/>
    </g>
   </g>
   <g id="line2d_73">
    <g clip-path="url(#p6b11bf18a3)">
     <use xlink:href="#m4b44b76cb0" x="692.93908" y="281.597235" style="fill: #0d0d0d; stroke: #0d0d0d"/>
    </g>
   </g>
   <g id="line2d_74">
    <g clip-path="url(#p6b11bf18a3)">
     <use xlink:href="#m4b44b76cb0" x="702.53767" y="273.89951" style="fill: #0d0d0d; stroke: #0d0d0d"/>
    </g>
   </g>
   <g id="line2d_75">
    <g clip-path="url(#p6b11bf18a3)">
     <use xlink:href="#m4b44b76cb0" x="712.13626" y="270.050647" style="fill: #0d0d0d; stroke: #0d0d0d"/>
    </g>
   </g>
   <g id="line2d_76">
    <g clip-path="url(#p6b11bf18a3)">
     <use xlink:href="#m4b44b76cb0" x="721.73485" y="246.957471" style="fill: #0d0d0d; stroke: #0d0d0d"/>
    </g>
   </g>
   <g id="line2d_77">
    <g clip-path="url(#p6b11bf18a3)">
     <use xlink:href="#m4b44b76cb0" x="731.33344" y="254.655197" style="fill: #0d0d0d; stroke: #0d0d0d"/>
    </g>
   </g>
   <g id="line2d_78">
    <g clip-path="url(#p6b11bf18a3)">
     <use xlink:href="#m4b44b76cb0" x="740.93203" y="245.03304" style="fill: #0d0d0d; stroke: #0d0d0d"/>
    </g>
   </g>
   <g id="line2d_79">
    <g clip-path="url(#p6b11bf18a3)">
     <use xlink:href="#m4b44b76cb0" x="750.53062" y="262.352922" style="fill: #0d0d0d; stroke: #0d0d0d"/>
    </g>
   </g>
   <g id="line2d_80">
    <g clip-path="url(#p6b11bf18a3)">
     <use xlink:href="#m4b44b76cb0" x="760.12921" y="241.184178" style="fill: #0d0d0d; stroke: #0d0d0d"/>
    </g>
   </g>
   <g id="line2d_81">
    <g clip-path="url(#p6b11bf18a3)">
     <use xlink:href="#m4b44b76cb0" x="769.7278" y="233.486452" style="fill: #0d0d0d; stroke: #0d0d0d"/>
    </g>
   </g>
   <g id="line2d_82">
    <g clip-path="url(#p6b11bf18a3)">
     <use xlink:href="#m4b44b76cb0" x="779.32639" y="225.788727" style="fill: #0d0d0d; stroke: #0d0d0d"/>
    </g>
   </g>
   <g id="line2d_83">
    <g clip-path="url(#p6b11bf18a3)">
     <use xlink:href="#m4b44b76cb0" x="788.92498" y="223.864296" style="fill: #0d0d0d; stroke: #0d0d0d"/>
    </g>
   </g>
   <g id="line2d_84">
    <g clip-path="url(#p6b11bf18a3)">
     <use xlink:href="#m4b44b76cb0" x="798.52357" y="210.393277" style="fill: #0d0d0d; stroke: #0d0d0d"/>
    </g>
   </g>
   <g id="line2d_85">
    <g clip-path="url(#p6b11bf18a3)">
     <use xlink:href="#m4b44b76cb0" x="808.12216" y="212.317708" style="fill: #0d0d0d; stroke: #0d0d0d"/>
    </g>
   </g>
   <g id="line2d_86">
    <g clip-path="url(#p6b11bf18a3)">
     <use xlink:href="#m4b44b76cb0" x="817.72075" y="204.619983" style="fill: #0d0d0d; stroke: #0d0d0d"/>
    </g>
   </g>
   <g id="line2d_87">
    <g clip-path="url(#p6b11bf18a3)">
     <use xlink:href="#m4b44b76cb0" x="827.31934" y="196.922258" style="fill: #0d0d0d; stroke: #0d0d0d"/>
    </g>
   </g>
   <g id="line2d_88">
    <g clip-path="url(#p6b11bf18a3)">
     <use xlink:href="#m4b44b76cb0" x="836.917929" y="198.846689" style="fill: #0d0d0d; stroke: #0d0d0d"/>
    </g>
   </g>
   <g id="line2d_89">
    <g clip-path="url(#p6b11bf18a3)">
     <use xlink:href="#m4b44b76cb0" x="846.516519" y="179.602376" style="fill: #0d0d0d; stroke: #0d0d0d"/>
    </g>
   </g>
   <g id="line2d_90">
    <g clip-path="url(#p6b11bf18a3)">
     <use xlink:href="#m4b44b76cb0" x="856.115109" y="175.753514" style="fill: #0d0d0d; stroke: #0d0d0d"/>
    </g>
   </g>
   <g id="line2d_91">
    <g clip-path="url(#p6b11bf18a3)">
     <use xlink:href="#m4b44b76cb0" x="865.713699" y="166.131357" style="fill: #0d0d0d; stroke: #0d0d0d"/>
    </g>
   </g>
   <g id="line2d_92">
    <g clip-path="url(#p6b11bf18a3)">
     <use xlink:href="#m4b44b76cb0" x="875.312289" y="169.98022" style="fill: #0d0d0d; stroke: #0d0d0d"/>
    </g>
   </g>
   <g id="line2d_93">
    <g clip-path="url(#p6b11bf18a3)">
     <use xlink:href="#m4b44b76cb0" x="884.910879" y="162.282495" style="fill: #0d0d0d; stroke: #0d0d0d"/>
    </g>
   </g>
   <g id="line2d_94">
    <g clip-path="url(#p6b11bf18a3)">
     <use xlink:href="#m4b44b76cb0" x="894.509469" y="156.509201" style="fill: #0d0d0d; stroke: #0d0d0d"/>
    </g>
   </g>
   <g id="line2d_95">
    <g clip-path="url(#p6b11bf18a3)">
     <use xlink:href="#m4b44b76cb0" x="904.108059" y="150.735907" style="fill: #0d0d0d; stroke: #0d0d0d"/>
    </g>
   </g>
   <g id="line2d_96">
    <g clip-path="url(#p6b11bf18a3)">
     <use xlink:href="#m4b44b76cb0" x="913.706649" y="143.038182" style="fill: #0d0d0d; stroke: #0d0d0d"/>
    </g>
   </g>
   <g id="line2d_97">
    <g clip-path="url(#p6b11bf18a3)">
     <use xlink:href="#m4b44b76cb0" x="923.305239" y="141.113751" style="fill: #0d0d0d; stroke: #0d0d0d"/>
    </g>
   </g>
   <g id="line2d_98">
    <g clip-path="url(#p6b11bf18a3)">
     <use xlink:href="#m4b44b76cb0" x="932.903829" y="135.340457" style="fill: #0d0d0d; stroke: #0d0d0d"/>
    </g>
   </g>
   <g id="line2d_99">
    <g clip-path="url(#p6b11bf18a3)">
     <use xlink:href="#m4b44b76cb0" x="942.502419" y="123.793869" style="fill: #0d0d0d; stroke: #0d0d0d"/>
    </g>
   </g>
   <g id="line2d_100">
    <g clip-path="url(#p6b11bf18a3)">
     <use xlink:href="#m4b44b76cb0" x="952.101009" y="121.869438" style="fill: #0d0d0d; stroke: #0d0d0d"/>
    </g>
   </g>
   <g id="line2d_101">
    <g clip-path="url(#p6b11bf18a3)">
     <use xlink:href="#m4b44b76cb0" x="961.699599" y="110.32285" style="fill: #0d0d0d; stroke: #0d0d0d"/>
    </g>
   </g>
   <g id="line2d_102">
    <g clip-path="url(#p6b11bf18a3)">
     <use xlink:href="#m4b44b76cb0" x="971.298189" y="123.793869" style="fill: #0d0d0d; stroke: #0d0d0d"/>
    </g>
   </g>
   <g id="line2d_103">
    <g clip-path="url(#p6b11bf18a3)">
     <use xlink:href="#m4b44b76cb0" x="980.896779" y="110.32285" style="fill: #0d0d0d; stroke: #0d0d0d"/>
    </g>
   </g>
   <g id="line2d_104">
    <g clip-path="url(#p6b11bf18a3)">
     <use xlink:href="#m4b44b76cb0" x="990.495369" y="110.32285" style="fill: #0d0d0d; stroke: #0d0d0d"/>
    </g>
   </g>
   <g id="line2d_105">
    <g clip-path="url(#p6b11bf18a3)">
     <use xlink:href="#m4b44b76cb0" x="1000.093959" y="110.32285" style="fill: #0d0d0d; stroke: #0d0d0d"/>
    </g>
   </g>
   <g id="line2d_106">
    <g clip-path="url(#p6b11bf18a3)">
     <use xlink:href="#m4b44b76cb0" x="1009.692549" y="102.625125" style="fill: #0d0d0d; stroke: #0d0d0d"/>
    </g>
   </g>
   <g id="line2d_107">
    <g clip-path="url(#p6b11bf18a3)">
     <use xlink:href="#m4b44b76cb0" x="1019.291139" y="89.154106" style="fill: #0d0d0d; stroke: #0d0d0d"/>
    </g>
   </g>
   <g id="line2d_108">
    <g clip-path="url(#p6b11bf18a3)">
     <use xlink:href="#m4b44b76cb0" x="1028.889729" y="89.154106" style="fill: #0d0d0d; stroke: #0d0d0d"/>
    </g>
   </g>
   <g id="line2d_109">
    <g clip-path="url(#p6b11bf18a3)">
     <use xlink:href="#m4b44b76cb0" x="1038.488319" y="81.456381" style="fill: #0d0d0d; stroke: #0d0d0d"/>
    </g>
   </g>
   <g id="line2d_110">
    <g clip-path="url(#p6b11bf18a3)">
     <use xlink:href="#m4b44b76cb0" x="1048.086909" y="60.287636" style="fill: #0d0d0d; stroke: #0d0d0d"/>
    </g>
   </g>
   <g id="patch_3">
    <path d="M 60.392 494.728 
L 60.392 39.6 
" style="fill: none; stroke: #000000; stroke-width: 0.8; stroke-linejoin: miter; stroke-linecap: square"/>
   </g>
   <g id="patch_4">
    <path d="M 1095.12 494.728 
L 1095.12 39.6 
" style="fill: none; stroke: #000000; stroke-width: 0.8; stroke-linejoin: miter; stroke-linecap: square"/>
   </g>
   <g id="patch_5">
    <path d="M 60.392 494.728 
L 1095.12 494.728 
" style="fill: none; stroke: #000000; stroke-width: 0.8; stroke-linejoin: miter; stroke-linecap: square"/>
   </g>
   <g id="patch_6">
    <path d="M 60.392 39.6 
L 1095.12 39.6 
" style="fill: none; stroke: #000000; stroke-width: 0.8; stroke-linejoin: miter; stroke-linecap: square"/>
   </g>
   <g id="text_14">
    <!-- N vs T graph for 10000 queries -->
    <g transform="translate(344.18725 33.360937)scale(0.3 -0.3)">
     <defs>
      <path id="DejaVuSans-76" d="M 191 3500 
L 800 3500 
L 1894 563 
L 2988 3500 
L 3597 3500 
L 2284 0 
L 1503 0 
L 191 3500 
z
" transform="scale(0.015625)"/>
      <path id="DejaVuSans-67" d="M 2906 1791 
Q 2906 2416 2648 2759 
Q 2391 3103 1925 3103 
Q 1463 3103 1205 2759 
Q 947 2416 947 1791 
Q 947 1169 1205 825 
Q 1463 481 1925 481 
Q 2391 481 2648 825 
Q 2906 1169 2906 1791 
z
M 3481 434 
Q 3481 -459 3084 -895 
Q 2688 -1331 1869 -1331 
Q 1566 -1331 1297 -1286 
Q 1028 -1241 775 -1147 
L 775 -588 
Q 1028 -725 1275 -790 
Q 1522 -856 1778 -856 
Q 2344 -856 2625 -561 
Q 2906 -266 2906 331 
L 2906 616 
Q 2728 306 2450 153 
Q 2172 0 1784 0 
Q 1141 0 747 490 
Q 353 981 353 1791 
Q 353 2603 747 3093 
Q 1141 3584 1784 3584 
Q 2172 3584 2450 3431 
Q 2728 3278 2906 2969 
L 2906 3500 
L 3481 3500 
L 3481 434 
z
" transform="scale(0.015625)"/>
      <path id="DejaVuSans-68" d="M 3513 2113 
L 3513 0 
L 2938 0 
L 2938 2094 
Q 2938 2591 2744 2837 
Q 2550 3084 2163 3084 
Q 1697 3084 1428 2787 
Q 1159 2491 1159 1978 
L 1159 0 
L 581 0 
L 581 4863 
L 1159 4863 
L 1159 2956 
Q 1366 3272 1645 3428 
Q 1925 3584 2291 3584 
Q 2894 3584 3203 3211 
Q 3513 2838 3513 2113 
z
" transform="scale(0.015625)"/>
      <path id="DejaVuSans-71" d="M 947 1747 
Q 947 1113 1208 752 
Q 1469 391 1925 391 
Q 2381 391 2643 752 
Q 2906 1113 2906 1747 
Q 2906 2381 2643 2742 
Q 2381 3103 1925 3103 
Q 1469 3103 1208 2742 
Q 947 2381 947 1747 
z
M 2906 525 
Q 2725 213 2448 61 
Q 2172 -91 1784 -91 
Q 1150 -91 751 415 
Q 353 922 353 1747 
Q 353 2572 751 3078 
Q 1150 3584 1784 3584 
Q 2172 3584 2448 3432 
Q 2725 3281 2906 2969 
L 2906 3500 
L 3481 3500 
L 3481 -1331 
L 2906 -1331 
L 2906 525 
z
" transform="scale(0.015625)"/>
     </defs>
     <use xlink:href="#DejaVuSans-4e"/>
     <use xlink:href="#DejaVuSans-20" x="74.804688"/>
     <use xlink:href="#DejaVuSans-76" x="106.591797"/>
     <use xlink:href="#DejaVuSans-73" x="165.771484"/>
     <use xlink:href="#DejaVuSans-20" x="217.871094"/>
     <use xlink:href="#DejaVuSans-54" x="249.658203"/>
     <use xlink:href="#DejaVuSans-20" x="310.742188"/>
     <use xlink:href="#DejaVuSans-67" x="342.529297"/>
     <use xlink:href="#DejaVuSans-72" x="406.005859"/>
     <use xlink:href="#DejaVuSans-61" x="447.119141"/>
     <use xlink:href="#DejaVuSans-70" x="508.398438"/>
     <use xlink:href="#DejaVuSans-68" x="571.875"/>
     <use xlink:href="#DejaVuSans-20" x="635.253906"/>
     <use xlink:href="#DejaVuSans-66" x="667.041016"/>
     <use xlink:href="#DejaVuSans-6f" x="702.246094"/>
     <use xlink:href="#DejaVuSans-72" x="763.427734"/>
     <use xlink:href="#DejaVuSans-20" x="804.541016"/>
     <use xlink:href="#DejaVuSans-31" x="836.328125"/>
     <use xlink:href="#DejaVuSans-30" x="899.951172"/>
     <use xlink:href="#DejaVuSans-30" x="963.574219"/>
     <use xlink:href="#DejaVuSans-30" x="1027.197266"/>
     <use xlink:href="#DejaVuSans-30" x="1090.820312"/>
     <use xlink:href="#DejaVuSans-20" x="1154.443359"/>
     <use xlink:href="#DejaVuSans-71" x="1186.230469"/>
     <use xlink:href="#DejaVuSans-75" x="1249.707031"/>
     <use xlink:href="#DejaVuSans-65" x="1313.085938"/>
     <use xlink:href="#DejaVuSans-72" x="1374.609375"/>
     <use xlink:href="#DejaVuSans-69" x="1415.722656"/>
     <use xlink:href="#DejaVuSans-65" x="1443.505859"/>
     <use xlink:href="#DejaVuSans-73" x="1505.029297"/>
    </g>
   </g>
  </g>
 </g>
 <defs>
  <clipPath id="p6b11bf18a3">
   <rect x="60.392" y="39.6" width="1034.728" height="455.128"/>
  </clipPath>
 </defs>
</svg>
